Coordinates
version=1
nRows=43
nColumns=12
inDegrees=yes

Units are S.I. units (second, meters, Newtons, ...)
Angles are in degrees

endheader
time	SC_y	SC_z	SC_x	AC_y	AC_z	AC_x	GH_y	GH_z	GH_yy	EL_x	PS_y
       0.0               -18.2          24.77          18.42           30.3         -5.549          -7.88          69.61          71.71         -39.28          77.11          74.52
  0.004707               -18.2          24.76          18.42          30.31         -5.548          -7.88          69.59           71.7         -39.29           77.1          74.51
  0.009415              -18.21          24.76          18.42          30.31         -5.546         -7.879          69.57          71.69         -39.31          77.09          74.51
   0.01412              -18.21          24.76          18.41          30.32         -5.544         -7.878          69.54          71.68         -39.33          77.09           74.5
   0.01883              -18.21          24.75          18.41          30.32         -5.542         -7.878          69.52          71.66         -39.34          77.08          74.49
   0.02354              -18.22          24.75          18.41          30.33          -5.54         -7.877          69.49          71.65         -39.36          77.07          74.49
   0.02824              -18.22          24.75           18.4          30.34         -5.538         -7.876          69.46          71.64         -39.38          77.06          74.48
   0.03295              -18.23          24.75           18.4          30.35         -5.535         -7.875          69.43          71.62         -39.41          77.05          74.47
   0.03766              -18.24          24.74           18.4          30.35         -5.532         -7.874          69.39          71.61         -39.43          77.03          74.46
   0.04237              -18.24          24.74          18.39          30.36          -5.53         -7.874          69.36          71.59         -39.45          77.02          74.46
   0.04707              -18.25          24.73          18.39          30.37         -5.527         -7.873          69.32          71.57         -39.48          77.01          74.45
   0.05178              -18.26          24.73          18.39          30.38         -5.523         -7.871          69.28          71.55         -39.51          76.99          74.44
   0.05649              -18.26          24.72          18.38          30.39          -5.52          -7.87          69.23          71.53         -39.54          76.98          74.42
    0.0612              -18.27          24.72          18.38          30.41         -5.516         -7.869          69.18          71.51         -39.57          76.96          74.41
    0.0659              -18.28          24.71          18.37          30.42         -5.512         -7.868          69.13          71.48         -39.61          76.94           74.4
   0.07061              -18.29          24.71          18.36          30.43         -5.507         -7.866          69.08          71.46         -39.65          76.92          74.38
   0.07532               -18.3           24.7          18.36          30.45         -5.503         -7.864          69.01          71.43         -39.69           76.9          74.37
   0.08003              -18.32          24.69          18.35          30.46         -5.497         -7.863          68.95           71.4         -39.74          76.88          74.35
   0.08473              -18.33          24.68          18.34          30.48         -5.491         -7.861          68.87          71.36         -39.79          76.85          74.33
   0.08944              -18.34          24.67          18.33           30.5         -5.485         -7.859          68.79          71.33         -39.85          76.82          74.31
   0.09415              -18.36          24.67          18.32          30.52         -5.478         -7.856           68.7          71.28         -39.91          76.79          74.29
   0.09886              -18.38          24.65          18.31          30.55          -5.47         -7.854          68.61          71.24         -39.98          76.76          74.27
    0.1036              -18.39          24.64           18.3          30.57         -5.462         -7.851           68.5          71.19         -40.05          76.72          74.24
    0.1083              -18.42          24.63          18.29           30.6         -5.453         -7.848          68.38          71.13         -40.13          76.68          74.21
     0.113              -18.44          24.61          18.28          30.64         -5.442         -7.844          68.25          71.07         -40.23          76.63          74.18
    0.1177              -18.47           24.6          18.26          30.67         -5.431         -7.841           68.1           71.0         -40.33          76.58          74.14
    0.1224               -18.5          24.58          18.24          30.71         -5.418         -7.836          67.93          70.93         -40.44          76.52           74.1
    0.1271              -18.53          24.56          18.22          30.76         -5.403         -7.831          67.75          70.84         -40.57          76.46          74.05
    0.1318              -18.57          24.54           18.2          30.81         -5.386         -7.826          67.53          70.74         -40.72          76.39           74.0
    0.1365              -18.61          24.51          18.18          30.87         -5.368          -7.82          67.29          70.63         -40.88           76.3          73.94
    0.1412              -18.66          24.48          18.15          30.94         -5.346         -7.812          67.02           70.5         -41.07          76.21          73.87
    0.1459              -18.71          24.45          18.11          31.02         -5.321         -7.804          66.71          70.35         -41.29           76.1           73.8
    0.1506              -18.78          24.41          18.08          31.11         -5.293         -7.795          66.35          70.19         -41.54          75.97           73.7
    0.1553              -18.85          24.36          18.03          31.21          -5.26         -7.784          65.93          69.99         -41.83          75.83           73.6
    0.1601              -18.94          24.31          17.98          31.33         -5.221         -7.771          65.43          69.76         -42.17          75.66          73.48
    0.1648              -19.04          24.24          17.92          31.47         -5.176         -7.756          64.85          69.49         -42.58          75.45          73.33
    0.1695              -19.16          24.17          17.85          31.64         -5.122         -7.738          64.16          69.17         -43.05          75.21          73.16
    0.1742              -19.31          24.07          17.76          31.85         -5.057         -7.716          63.34          68.78         -43.63          74.93          72.96
    0.1789              -19.49          23.96          17.65          32.09         -4.978          -7.69          62.34          68.32         -44.32          74.58          72.71
    0.1836               -19.7          23.83          17.53           32.4         -4.882         -7.658          61.12          67.75         -45.17          74.15           72.4
    0.1883              -19.97          23.66          17.37          32.77         -4.764         -7.619          59.61          67.05         -46.21          73.63          72.03
     0.193               -20.3          23.46          17.17          33.23         -4.616          -7.57          57.73          66.17         -47.52          72.97          71.56
    0.1977              -20.72           23.2          16.92          33.81          -4.43         -7.508          55.36          65.07         -49.16          72.15          70.97
